<svg xmlns="http://www.w3.org/2000/svg" width="21.231" height="21.231" viewBox="0 0 21.231 21.231">
  <g id="Icon_Transport_Texi" data-name="Icon/Transport/Texi" transform="translate(0 0)">
    <g id="icon_headermenu_taxi" data-name="icon/headermenu/taxi">
      <g id="Group_5" data-name="Group 5">
        <path id="Path" d="M.935,0H15.578l.935,2.354H0Z" transform="translate(2.359 2.335)" fill="#328cff"/>
        <path id="Shape" d="M20.051,21.231H18.872A1.208,1.208,0,0,1,17.692,20V18.77H3.539V20a1.208,1.208,0,0,1-1.18,1.231H1.18A1.208,1.208,0,0,1,0,20V10.154L2.453,2.782A1.77,1.77,0,0,1,4.128,1.538H7.077A1.541,1.541,0,0,1,8.616,0h4a1.54,1.54,0,0,1,1.538,1.538H17.1a1.77,1.77,0,0,1,1.675,1.244l2.453,7.372V20A1.208,1.208,0,0,1,20.051,21.231ZM17.1,11.385a1.848,1.848,0,1,0,1.769,1.846A1.811,1.811,0,0,0,17.1,11.385Zm-12.974,0a1.848,1.848,0,0,0,0,3.692,1.848,1.848,0,0,0,0-3.692Zm0-8L2.359,8.924H18.872L17.1,3.385Z" fill="#fff"/>
      </g>
    </g>
  </g>
</svg>
