<svg id="Icon_Stay_Villa" data-name="Icon/Stay/Villa" xmlns="http://www.w3.org/2000/svg" width="24" height="24.007" viewBox="0 0 24 24.007">
  <g id="Group_39" data-name="Group 39">
    <path id="Path" d="M.385,9.881a1.08,1.08,0,0,0-.366.806L0,16.721A1.08,1.08,0,0,0,1.08,17.8H8V16.371A3.776,3.776,0,0,1,12,12.857a3.776,3.776,0,0,1,3.992,3.514V17.8h6.925a1.08,1.08,0,0,0,1.08-1.083l-.019-6.033a1.08,1.08,0,0,0-.366-.806L12.711.27a1.08,1.08,0,0,0-1.429,0Z" transform="translate(0.003 1.08)" fill="#328cff"/>
    <path id="Combined_Shape" data-name="Combined Shape" d="M1.3,24.007a1.3,1.3,0,0,1-1.3-1.3v-.259a1.3,1.3,0,0,1,1.3-1.3H22.7a1.3,1.3,0,0,1,1.3,1.3v.259a1.3,1.3,0,0,1-1.3,1.3Zm14.7-5V16.371A3.777,3.777,0,0,0,12,12.857a3.776,3.776,0,0,0-3.991,3.514V19H1.083A1.08,1.08,0,0,1,0,17.922l.021-7.233a1.078,1.078,0,0,1,.365-.807L11.285.27a1.081,1.081,0,0,1,1.429,0l10.9,9.611a1.081,1.081,0,0,1,.365.807L24,17.922A1.08,1.08,0,0,1,22.917,19Z" fill="#fff"/>
  </g>
</svg>
