<svg xmlns="http://www.w3.org/2000/svg" width="24" height="19.384" viewBox="0 0 24 19.384">
  <g id="Icon_Stay_Hotel" data-name="Icon/Stay/Hotel" transform="translate(0 0)">
    <g id="Icon">
      <path id="Path" d="M7.091,3.649A3.6,3.6,0,0,0,3.545,0,3.6,3.6,0,0,0,0,3.649,3.6,3.6,0,0,0,3.545,7.3,3.6,3.6,0,0,0,7.091,3.649Z" transform="translate(3.9 2.347)" fill="#0a6ada"/>
      <path id="Shape" d="M22.668,19.384h-.636A1.334,1.334,0,0,1,20.7,18.052V14.6H3.1v3.457a1.334,1.334,0,0,1-1.332,1.332H1.332A1.334,1.334,0,0,1,0,18.052V1.182a1.182,1.182,0,0,1,2.363,0v9.765h9.454V2.433h7.455A4.8,4.8,0,0,1,24,7.3V18.052A1.334,1.334,0,0,1,22.668,19.384ZM7.091,8.591a3.6,3.6,0,0,1-3.546-3.65A3.6,3.6,0,0,1,7.091,1.292a3.6,3.6,0,0,1,3.545,3.649A3.6,3.6,0,0,1,7.091,8.591Z" fill="#fff"/>
    </g>
  </g>
</svg>
