<svg xmlns="http://www.w3.org/2000/svg" width="23.682" height="21.268" viewBox="0 0 23.682 21.268">
  <g id="Icon_Transport_Plane" data-name="Icon/Transport/Plane" transform="translate(-0.32 -0.083)">
    <path id="Path" d="M21.281,6.5,15.136,8.336,7.957.841A1.911,1.911,0,0,0,6.035.331h0A.964.964,0,0,0,5.452,1.7l4.257,8.26L3.958,11.681l-1.62-1.419a1.581,1.581,0,0,0-1.5-.324h0A.73.73,0,0,0,.4,10.969l1.705,3.318L3,16.011l1.851-.557,6.145-1.841,5.034-1.5,6.145-1.841a2.009,2.009,0,0,0,1.238-2.4A1.721,1.721,0,0,0,21.281,6.5Z" transform="translate(0 1.122)" fill="#328cff"/>
    <path id="Shape" d="M20.952,21.352H1.693a1.3,1.3,0,0,1,0-2.593H20.952a1.3,1.3,0,0,1,0,2.593ZM2.56,15.842h0l-.891-1.723L-.037,10.8A.729.729,0,0,1,.4,9.769a1.581,1.581,0,0,1,1.5.324l1.62,1.419L9.272,9.788,5.014,1.527A.964.964,0,0,1,5.6.162a1.909,1.909,0,0,1,1.922.51l7.179,7.5,6.144-1.841a1.549,1.549,0,0,1,.456-.069A1.776,1.776,0,0,1,22.972,7.7a2,2,0,0,1-1.238,2.4L15.59,11.94l-5.034,1.5L4.411,15.285l-1.85.557Z" transform="translate(0.97)" fill="#fff"/>
  </g>
</svg>
